<svg xmlns="http://www.w3.org/2000/svg" width="120" height="218" viewBox="0 0 120 218" fill="none">
  <g clip-path="url(#clip0_639_1099)">
    <path d="M120 34.933V182.582C120.001 187.171 119.097 191.716 117.341 195.956C115.584 200.196 113.008 204.048 109.761 207.292C106.514 210.536 102.66 213.107 98.4182 214.86C94.1765 216.613 89.6309 217.512 85.0413 217.506H34.8903C25.633 217.5 16.7573 213.817 10.2146 207.268C3.67186 200.719 -0.00226818 191.839 1.05052e-06 182.582V112.767C3.57367 116.529 25.0499 138.655 59.8461 138.698C94.8219 138.792 116.435 116.469 119.966 112.767C118.256 110.202 98.1647 81.1342 61.1884 80.5272C22.7159 79.8774 1.44487 110.587 0.00855884 112.767V34.9672C0.00743594 30.3802 0.909937 25.8378 2.66455 21.5996C4.41917 17.3614 6.99153 13.5103 10.2347 10.2664C13.4778 7.02241 17.3282 4.44913 21.566 2.69348C25.8038 0.937824 30.346 0.0341963 34.933 0.0341964H85.0413C89.6284 0.0297036 94.1714 0.92889 98.4109 2.68039C102.65 4.4319 106.503 7.0014 109.75 10.2422C112.996 13.4829 115.572 17.3315 117.331 21.568C119.09 25.8045 119.997 30.346 120 34.933Z" fill="#00FFB3"/>
    <path d="M60 138.706C76.087 138.706 89.128 125.665 89.128 109.578C89.128 93.4912 76.087 80.4502 60 80.4502C43.9131 80.4502 30.8721 93.4912 30.8721 109.578C30.8721 125.665 43.9131 138.706 60 138.706Z" fill="#00FFB3"/>
  </g>
  <defs>
    <clipPath id="clip0_639_1099">
      <rect width="120" height="217.506" fill="white"/>
    </clipPath>
  </defs>
</svg>