<svg width="120" height="120" viewBox="0 0 120 120" fill="none" xmlns="http://www.w3.org/2000/svg">
<path fill-rule="evenodd" clip-rule="evenodd" d="M0.0158924 102.209C8.23233 98.8371 28.8701 93.4883 45.6896 99.0697C62.5091 104.651 73.2388 115.349 76.5012 120C76.6221 114.884 80.8511 103.326 96.8007 98.0232C89.7925 92.7907 74.6888 78.4186 70.3389 62.7907C74.8096 60.4651 88.2459 56.6511 106.225 60L120 42.907L91.0008 31.3954L88.1009 25.1163L66.3515 17.7907V5.5814L51.8519 0C34.2108 11.3953 -0.854083 47.7905 0.0158924 102.209ZM20.2998 42.9071C23.5622 36.5117 34.5819 20.442 52.5614 7.32568L59.0862 9.41871V21.628L83.0105 30.349L84.823 35.5815L109.835 46.0466L104.035 53.3722C95.2143 52.0932 74.3108 51.628 61.2611 60.0001C60.8987 57.2094 60.8262 50.0932 63.4361 43.9536L58.3612 41.1629C54.6155 49.8839 50.2415 73.4653 62.7111 98.0234L48.9365 92.0932C46.5199 83.7211 43.8616 61.1164 52.5614 37.6745L47.849 35.2327L44.5866 43.9536C39.6326 42.7908 27.8396 40.9536 20.2998 42.9071Z" fill="#0CFCAC"/>
<path d="M80.965 31.5579L61.8354 24.5449L81.6735 34.3631L80.965 31.5579Z" fill="#0CFCAC"/>
</svg>
