<svg width="758" height="900" viewBox="0 0 758 900" fill="none" xmlns="http://www.w3.org/2000/svg">
<g clip-path="url(#clip0_902_257)">
<path d="M6.76123 654.562H0V659.47H6.76123V654.562Z" fill="#018576"/>
<path d="M6.76123 664.105H0V669.013H6.76123V664.105Z" fill="#018576"/>
<path d="M6.76123 673.65H0V678.558H6.76123V673.65Z" fill="#018576"/>
<path d="M2.80371 649.1V47.0773L65.9085 1.28711H531.653" stroke="#00FFB3" stroke-width="2" stroke-miterlimit="10"/>
<path d="M64.0452 654.498V634.288L87.2392 617.453V556.181L47.8076 527.56V161.561" stroke="#00FFB3" stroke-width="2" stroke-miterlimit="10"/>
<path d="M56.6274 53.8145L101.152 21.4844H500.1" stroke="#00FFB3" stroke-width="2" stroke-miterlimit="10"/>
<path d="M57.8519 66.2324H50.4341V71.6165H57.8519V66.2324Z" fill="#018576"/>
<path d="M57.8519 76.7031H50.4341V82.0872H57.8519V76.7031Z" fill="#018576"/>
<path d="M57.8519 87.1875H50.4341V92.5716H57.8519V87.1875Z" fill="#018576"/>
<path d="M82.6074 844.395L133.627 881.426H758.021" stroke="#00FFB3" stroke-width="2" stroke-miterlimit="10"/>
<path d="M83.832 879.416L5.90923 822.845L4.0459 685.023" stroke="#00FFB3" stroke-width="2" stroke-miterlimit="10"/>
<path d="M15.7939 854.713L76.4143 898.713H421.557" stroke="#00FFB3" stroke-width="2" stroke-miterlimit="10"/>
<path d="M443.81 863.406H424.023V868.198H443.81V863.406Z" fill="#018576"/>
<path d="M474.333 863.406H454.546V868.198H474.333V863.406Z" fill="#018576"/>
<path d="M504.839 863.406H485.052V868.198H504.839V863.406Z" fill="#018576"/>
<path d="M467.998 37.4961H448.211V42.2876H467.998V37.4961Z" fill="#018576"/>
<path d="M498.503 37.4961H478.716V42.2876H498.503V37.4961Z" fill="#018576"/>
<path d="M529.027 37.4961H509.24V42.2876H529.027V37.4961Z" fill="#018576"/>
<path d="M40.3369 143.451L56.0066 154.825" stroke="#00FFB3" stroke-width="2" stroke-miterlimit="10"/>
<path d="M56.0066 143.451L40.3369 154.825" stroke="#00FFB3" stroke-width="2" stroke-miterlimit="10"/>
<path d="M55.1724 663.166L70.8421 674.54" stroke="#00FFB3" stroke-width="2" stroke-miterlimit="10"/>
<path d="M70.8421 663.166L55.1724 674.54" stroke="#00FFB3" stroke-width="2" stroke-miterlimit="10"/>
<path d="M275.152 824.031L302.8 844.099" stroke="#00FFB3" stroke-width="2" stroke-miterlimit="10"/>
<path d="M302.8 824.031L275.152 844.099" stroke="#00FFB3" stroke-width="2" stroke-miterlimit="10"/>
<path d="M101.152 21.4844H529.168" stroke="#00FFB3" stroke-width="2" stroke-miterlimit="10"/>
</g>
<defs>
<clipPath id="clip0_902_257">
<rect width="758" height="900" fill="white"/>
</clipPath>
</defs>
</svg>
