<svg width="640" height="365" viewBox="0 0 640 365" fill="none" xmlns="http://www.w3.org/2000/svg">
<path d="M311.666 332.879C403.483 332.879 477.917 258.361 477.917 166.439C477.917 74.5175 403.483 0 311.666 0C219.848 0 145.415 74.5175 145.415 166.439C145.415 258.361 219.848 332.879 311.666 332.879Z" fill="#202020"/>
<path d="M121.738 264.76C180.743 264.76 228.576 216.872 228.576 157.8C228.576 98.7277 180.743 50.8401 121.738 50.8401C62.7323 50.8401 14.8989 98.7277 14.8989 157.8C14.8989 216.872 62.7323 264.76 121.738 264.76Z" fill="#202020"/>
<path d="M557.108 285.33C598.831 243.56 598.831 175.837 557.108 134.066C515.384 92.2958 447.738 92.2958 406.015 134.066C364.292 175.837 364.292 243.56 406.015 285.33C447.738 327.101 515.384 327.101 557.108 285.33Z" fill="#202020"/>
<path d="M535.319 144.25C551.541 144.25 564.693 131.084 564.693 114.843C564.693 98.6012 551.541 85.4351 535.319 85.4351C519.096 85.4351 505.944 98.6012 505.944 114.843C505.944 131.084 519.096 144.25 535.319 144.25Z" fill="#202020"/>
<path d="M159.502 48.311C170.124 48.311 178.734 39.6906 178.734 29.0567C178.734 18.4229 170.124 9.80249 159.502 9.80249C148.88 9.80249 140.27 18.4229 140.27 29.0567C140.27 39.6906 148.88 48.311 159.502 48.311Z" fill="#202020"/>
<path d="M447.311 193.824V163.529H373.884V130.41L454.756 12.824H492.753V127.842H516.373V163.529H492.753V193.824H447.311ZM447.311 127.842V79.3189L414.705 127.842H447.311Z" fill="#00C188"/>
<path d="M289.004 196.648C266.582 196.648 249.467 188.518 237.657 172.258C225.847 155.827 219.942 132.635 219.942 102.682C219.942 72.5583 225.847 49.6231 237.657 33.8766C249.467 17.9589 266.582 10 289.004 10C311.426 10 328.542 17.9589 340.352 33.8766C352.162 49.6231 358.066 72.4727 358.066 102.425C358.066 132.549 352.162 155.827 340.352 172.258C328.542 188.518 311.426 196.648 289.004 196.648ZM289.004 159.164C297.22 159.164 303.296 154.714 307.233 145.814C311.34 136.743 313.394 122.28 313.394 102.425C313.394 82.7422 311.34 68.7072 307.233 60.3205C303.296 51.7626 297.22 47.4836 289.004 47.4836C280.789 47.4836 274.627 51.7626 270.519 60.3205C266.582 68.7072 264.614 82.7422 264.614 102.425C264.614 122.28 266.582 136.743 270.519 145.814C274.627 154.714 280.789 159.164 289.004 159.164Z" fill="#00C188"/>
<path d="M139.427 193.824V163.529H66V130.41L146.872 12.824H184.869V127.842H208.489V163.529H184.869V193.824H139.427ZM139.427 127.842V79.3189L106.821 127.842H139.427Z" fill="#00C188"/>
<path d="M92.751 337.605L90.151 329.002L89.2106 325.864L75.6206 280.894L68.337 256.822L57.3101 220.307H57.1257H43.4436H42.8166L36.0309 244.25L30.6097 263.338L25.1884 282.427L20.2466 299.853L9.53325 337.605H0V351.93H101.786V337.605H92.751Z" fill="#012E3F"/>
<path d="M640 342.792H0.202637V364.76H640V342.792Z" fill="#012E3F"/>
<path d="M47.8506 338.491L91.5154 184.604H109.697L156.146 338.343L47.8506 338.491Z" fill="#00FFB3"/>
<path d="M166.472 333.728H37.082V351.93H166.472V333.728Z" fill="#018576"/>
<path d="M123.729 231.033L82.8857 215.027L75.9893 239.303L132.967 261.622L123.729 231.033Z" fill="#ECEFF1"/>
<path d="M69.1112 263.578L62.2148 287.854L151.444 322.781L142.206 292.192L69.1112 263.578Z" fill="#ECEFF1"/>
<g style="mix-blend-mode:multiply" opacity="0.18">
<path d="M151.702 322.781L150.485 318.794L133.226 261.622L123.969 231.033L109.955 184.604H92.3267L103.98 223.205L106.341 231.033L113.219 253.794L115.579 261.622L122.457 284.365L131.695 314.954L132.857 318.794L134.055 322.781L137.374 333.728H149.102H155.003L151.702 322.781Z" fill="#666666"/>
</g>
<path d="M448.911 147.222L487.062 352.226H466.594L429.918 147.222H448.911Z" fill="#333333"/>
<path d="M439.894 147.222L478.046 352.226H457.578L420.901 147.222H439.894Z" fill="#666666"/>
<path d="M236.414 147.222L274.547 352.226H254.079L217.402 147.222H236.414Z" fill="#333333"/>
<path d="M227.378 147.222L265.529 352.226H245.08L208.385 147.222H227.378Z" fill="#666666"/>
<path d="M187.383 147.222L149.379 352.225H169.847L206.339 146.724L187.383 147.222Z" fill="#4D4D4D"/>
<path d="M415.996 258.114H201.932L195.127 251.524L409.192 147.222L415.996 153.831V258.114Z" fill="#CCCCCC"/>
<path d="M195.127 251.524H220.777L195.127 220.289V251.524Z" fill="#ECEFF1"/>
<path d="M282.438 147.222L368.127 251.524H409.192V241.26L331.93 147.222H282.438Z" fill="#ECEFF1"/>
<path d="M195.127 147.222V159.923L270.379 251.524H318.506L232.818 147.222H195.127Z" fill="#ECEFF1"/>
<path d="M409.192 147.222H381.551L409.192 180.876V147.222Z" fill="#ECEFF1"/>
<path d="M195.127 220.289L220.777 251.524H270.379L195.127 159.923V220.289Z" fill="#00FFB3"/>
<path d="M232.818 147.222L318.506 251.524H368.127L282.439 147.222H232.818Z" fill="#00FFB3"/>
<path d="M381.551 147.222H331.93L409.192 241.26V180.876L381.551 147.222Z" fill="#00FFB3"/>
<path d="M415.996 258.114L409.192 251.524H195.127L201.821 258.225L415.996 258.114Z" fill="#B2B2B2"/>
<path d="M418.486 147.222L380.482 352.226H400.95L437.829 147.222H418.486Z" fill="#4D4D4D"/>
<path d="M394.441 296.992H163.873V314.068H394.441V296.992Z" fill="#4D4D4D"/>
<path d="M391.656 288.999H161.088V306.074H391.656V288.999Z" fill="#999999"/>
<path d="M176.134 147.222L138.149 352.225H158.598L195.109 146.724L176.134 147.222Z" fill="#999999"/>
<path d="M409.192 147.222L371.188 352.226H391.656L427.982 147.222H409.192Z" fill="#999999"/>
<path d="M630.965 339.949L628.365 331.347L627.424 328.208L613.834 283.239L606.569 259.166L595.542 222.652H595.34H581.657H581.031L574.245 246.595L568.824 265.683L563.402 284.771L558.46 302.198L547.747 339.949H538.214V354.275H640V339.949H630.965Z" fill="#012E3F"/>
<path d="M456.803 338.491L500.468 184.604H518.649L565.099 338.343L456.803 338.491Z" fill="#00FFB3"/>
<path d="M575.425 333.728H446.034V351.93H575.425V333.728Z" fill="#018576"/>
<path d="M532.682 231.033L491.838 215.027L484.942 239.303L541.92 261.622L532.682 231.033Z" fill="#ECEFF1"/>
<path d="M478.064 263.578L471.167 287.854L560.396 322.781L551.158 292.192L478.064 263.578Z" fill="#ECEFF1"/>
<g style="mix-blend-mode:multiply" opacity="0.18">
<path d="M560.655 322.781L559.438 318.794L542.16 261.622L532.922 231.033L518.908 184.604H501.279L512.933 223.205L515.293 231.033L522.171 253.794L524.532 261.622L531.41 284.365L540.648 314.954L541.809 318.794L543.008 322.781L546.309 333.728H558.055H563.937L560.655 322.781Z" fill="#666666"/>
</g>
</svg>
