<svg width="758" height="900" viewBox="0 0 758 900" fill="none" xmlns="http://www.w3.org/2000/svg">
<g clip-path="url(#clip0_902_206)">
<path d="M751.239 659.469H758V654.561H751.239V659.469Z" fill="#018576"/>
<path d="M751.239 669.014H758V664.106H751.239V669.014Z" fill="#018576"/>
<path d="M751.239 678.559H758V673.651H751.239V678.559Z" fill="#018576"/>
<path d="M755.178 649.1V47.0773L692.091 1.28711H226.347" stroke="#00FFB3" stroke-width="2" stroke-miterlimit="10"/>
<path d="M693.955 654.498V634.288L670.761 617.453V556.181L710.192 527.56V161.561" stroke="#00FFB3" stroke-width="2" stroke-miterlimit="10"/>
<path d="M701.372 53.8145L656.83 21.4844H257.899" stroke="#00FFB3" stroke-width="2" stroke-miterlimit="10"/>
<path d="M700.148 71.6152H707.565V66.2312H700.148V71.6152Z" fill="#018576"/>
<path d="M700.148 82.0996H707.565V76.7156H700.148V82.0996Z" fill="#018576"/>
<path d="M700.148 92.5723H707.565V87.1882H700.148V92.5723Z" fill="#018576"/>
<path d="M675.392 844.395L624.372 881.426H-0.0209961" stroke="#00FFB3" stroke-width="2" stroke-miterlimit="10"/>
<path d="M674.15 879.416L752.091 822.845L753.954 685.023" stroke="#00FFB3" stroke-width="2" stroke-miterlimit="10"/>
<path d="M742.188 855L681.586 899H336.443" stroke="#00FFB3" stroke-width="2" stroke-miterlimit="10"/>
<path d="M314.19 868.197H333.977V863.406H314.19V868.197Z" fill="#018576"/>
<path d="M283.667 868.197H303.454V863.406H283.667V868.197Z" fill="#018576"/>
<path d="M253.161 868.197H272.948V863.406H253.161V868.197Z" fill="#018576"/>
<path d="M290.002 42.2734H309.789V37.4819H290.002V42.2734Z" fill="#018576"/>
<path d="M259.496 42.2734H279.283V37.4819H259.496V42.2734Z" fill="#018576"/>
<path d="M228.974 42.2734H248.761V37.4819H228.974V42.2734Z" fill="#018576"/>
<path d="M717.663 143.451L701.993 154.825" stroke="#00FFB3" stroke-width="2" stroke-miterlimit="10"/>
<path d="M701.993 143.451L717.663 154.825" stroke="#00FFB3" stroke-width="2" stroke-miterlimit="10"/>
<path d="M702.828 663.166L687.158 674.54" stroke="#00FFB3" stroke-width="2" stroke-miterlimit="10"/>
<path d="M687.158 663.166L702.828 674.54" stroke="#00FFB3" stroke-width="2" stroke-miterlimit="10"/>
<path d="M482.83 824.031L455.2 844.099" stroke="#00FFB3" stroke-width="2" stroke-miterlimit="10"/>
<path d="M455.2 824.031L482.83 844.099" stroke="#00FFB3" stroke-width="2" stroke-miterlimit="10"/>
<path d="M656.848 21.4844H228.814" stroke="#00FFB3" stroke-width="2" stroke-miterlimit="10"/>
</g>
<defs>
<clipPath id="clip0_902_206">
<rect width="758" height="900" fill="white"/>
</clipPath>
</defs>
</svg>
