<svg width="4135" height="2545" viewBox="0 0 4135 2545" fill="none" xmlns="http://www.w3.org/2000/svg">
<path d="M14.8553 1850.96H0V1864.83H14.8553V1850.96Z" fill="#018576"/>
<path d="M14.8553 1877.95H0V1891.82H14.8553V1877.95Z" fill="#018576"/>
<path d="M14.8553 1904.93H0V1918.81H14.8553V1904.93Z" fill="#018576"/>
<path d="M6.16052 1835.51V133.127L144.81 3.64258H1168.11" stroke="#00FFB3" stroke-width="2" stroke-miterlimit="10"/>
<path d="M140.716 1850.77V1793.63L191.676 1746.02V1572.75L105.04 1491.82V456.856" stroke="#00FFB3" stroke-width="2" stroke-miterlimit="10"/>
<path d="M124.418 152.176L222.245 60.7539H1098.79" stroke="#00FFB3" stroke-width="2" stroke-miterlimit="10"/>
<path d="M127.108 187.288H110.81V202.513H127.108V187.288Z" fill="#018576"/>
<path d="M127.108 216.9H110.81V232.125H127.108V216.9Z" fill="#018576"/>
<path d="M127.108 246.549H110.81V261.774H127.108V246.549Z" fill="#018576"/>
<path d="M181.5 2387.76L293.597 2492.48H1665.47" stroke="#00FFB3" stroke-width="2" stroke-miterlimit="10"/>
<path d="M184.19 2486.8L12.9838 2326.83L8.88977 1937.1" stroke="#00FFB3" stroke-width="2" stroke-miterlimit="10"/>
<path d="M34.7014 2416.94L167.892 2541.36H926.215" stroke="#00FFB3" stroke-width="2" stroke-miterlimit="10"/>
<path d="M975.109 2441.52H931.634V2455.07H975.109V2441.52Z" fill="#018576"/>
<path d="M1042.17 2441.52H998.698V2455.07H1042.17V2441.52Z" fill="#018576"/>
<path d="M1109.2 2441.52H1065.72V2455.07H1109.2V2441.52Z" fill="#018576"/>
<path d="M1028.25 106.028H984.778V119.578H1028.25V106.028Z" fill="#018576"/>
<path d="M1095.28 106.028H1051.8V119.578H1095.28V106.028Z" fill="#018576"/>
<path d="M1162.34 106.028H1118.87V119.578H1162.34V106.028Z" fill="#018576"/>
<path d="M88.625 405.646L123.053 437.807" stroke="#00FFB3" stroke-width="2" stroke-miterlimit="10"/>
<path d="M123.053 405.646L88.625 437.807" stroke="#00FFB3" stroke-width="2" stroke-miterlimit="10"/>
<path d="M121.221 1875.29L155.649 1907.45" stroke="#00FFB3" stroke-width="2" stroke-miterlimit="10"/>
<path d="M155.649 1875.29L121.221 1907.45" stroke="#00FFB3" stroke-width="2" stroke-miterlimit="10"/>
<path d="M604.545 2330.18L665.292 2386.92" stroke="#00FFB3" stroke-width="2" stroke-miterlimit="10"/>
<path d="M665.292 2330.18L604.545 2386.92" stroke="#00FFB3" stroke-width="2" stroke-miterlimit="10"/>
<path d="M222.245 60.7539H1162.65" stroke="#00FFB3" stroke-width="2" stroke-miterlimit="10"/>
<path d="M4120.14 1864.83H4135V1850.96H4120.14V1864.83Z" fill="#018576"/>
<path d="M4120.14 1891.82H4135V1877.95H4120.14V1891.82Z" fill="#018576"/>
<path d="M4120.14 1918.81H4135V1904.94H4120.14V1918.81Z" fill="#018576"/>
<path d="M4128.8 1835.51V133.127L3990.19 3.64258H2966.89" stroke="#00FFB3" stroke-width="2" stroke-miterlimit="10"/>
<path d="M3994.28 1850.77V1793.63L3943.32 1746.02V1572.75L4029.96 1491.82V456.856" stroke="#00FFB3" stroke-width="2" stroke-miterlimit="10"/>
<path d="M4010.58 152.176L3912.72 60.7539H3036.21" stroke="#00FFB3" stroke-width="2" stroke-miterlimit="10"/>
<path d="M4007.89 202.513H4024.19V187.288H4007.89V202.513Z" fill="#018576"/>
<path d="M4007.89 232.162H4024.19V216.937H4007.89V232.162Z" fill="#018576"/>
<path d="M4007.89 261.773H4024.19V246.549H4007.89V261.773Z" fill="#018576"/>
<path d="M3953.5 2387.76L3841.4 2492.48H2469.53" stroke="#00FFB3" stroke-width="2" stroke-miterlimit="10"/>
<path d="M3950.77 2486.8L4122.02 2326.83L4126.11 1937.1" stroke="#00FFB3" stroke-width="2" stroke-miterlimit="10"/>
<path d="M4100.26 2416.94L3967.11 2541.36H3208.79" stroke="#00FFB3" stroke-width="2" stroke-miterlimit="10"/>
<path d="M3159.89 2455.07H3203.37V2441.52H3159.89V2455.07Z" fill="#018576"/>
<path d="M3092.83 2455.07H3136.3V2441.52H3092.83V2455.07Z" fill="#018576"/>
<path d="M3025.8 2455.07H3069.28V2441.52H3025.8V2455.07Z" fill="#018576"/>
<path d="M3106.75 119.541H3150.22V105.992H3106.75V119.541Z" fill="#018576"/>
<path d="M3039.72 119.541H3083.2V105.992H3039.72V119.541Z" fill="#018576"/>
<path d="M2972.66 119.541H3016.13V105.992H2972.66V119.541Z" fill="#018576"/>
<path d="M4046.38 405.646L4011.95 437.807" stroke="#00FFB3" stroke-width="2" stroke-miterlimit="10"/>
<path d="M4011.95 405.646L4046.38 437.807" stroke="#00FFB3" stroke-width="2" stroke-miterlimit="10"/>
<path d="M4013.78 1875.29L3979.35 1907.45" stroke="#00FFB3" stroke-width="2" stroke-miterlimit="10"/>
<path d="M3979.35 1875.29L4013.78 1907.45" stroke="#00FFB3" stroke-width="2" stroke-miterlimit="10"/>
<path d="M3530.42 2330.18L3469.71 2386.92" stroke="#00FFB3" stroke-width="2" stroke-miterlimit="10"/>
<path d="M3469.71 2330.18L3530.42 2386.92" stroke="#00FFB3" stroke-width="2" stroke-miterlimit="10"/>
<path d="M3912.76 60.7539H2972.31" stroke="#00FFB3" stroke-width="2" stroke-miterlimit="10"/>
</svg>
