<svg width="1854" height="909" viewBox="0 0 1854 909" fill="none" xmlns="http://www.w3.org/2000/svg">
<g clip-path="url(#clip0_660_1590)">
<path d="M6.66064 661.107H0V666.064H6.66064V661.107Z" fill="#00FFB3"/>
<path d="M6.66064 670.748H0V675.704H6.66064V670.748Z" fill="#00FFB3"/>
<path d="M6.66064 680.387H0V685.344H6.66064V680.387Z" fill="#00FFB3"/>
<path d="M2.76221 655.591V47.5489L64.9282 1.30078H523.743" stroke="#018576" stroke-width="2" stroke-miterlimit="10"/>
<path d="M63.0927 661.042V640.631L85.9416 623.628V561.742L47.0967 532.836V163.176" stroke="#018576" stroke-width="2" stroke-miterlimit="10"/>
<path d="M55.7852 54.3531L99.6475 21.6997H492.66" stroke="#018576" stroke-width="2" stroke-miterlimit="10"/>
<path d="M56.9911 66.894H49.6836V72.3319H56.9911V66.894Z" fill="#00FFB3"/>
<path d="M56.9911 77.4707H49.6836V82.9086H56.9911V77.4707Z" fill="#00FFB3"/>
<path d="M56.9911 88.0601H49.6836V93.498H56.9911V88.0601Z" fill="#00FFB3"/>
<path d="M81.3784 852.839L131.639 890.241H746.743" stroke="#018576" stroke-width="2" stroke-miterlimit="10"/>
<path d="M82.5849 888.211L3.98584 831.074V691.875" stroke="#018576" stroke-width="2" stroke-miterlimit="10"/>
<path d="M15.5591 863.259L75.2776 907.699H415.285" stroke="#018576" stroke-width="2" stroke-miterlimit="10"/>
<path d="M437.207 872.041H417.715V876.88H437.207V872.041Z" fill="#00FFB3"/>
<path d="M467.276 872.041H447.784V876.88H467.276V872.041Z" fill="#00FFB3"/>
<path d="M497.327 872.041H477.835V876.88H497.327V872.041Z" fill="#00FFB3"/>
<path d="M461.035 37.8701H441.542V42.7096H461.035V37.8701Z" fill="#00FFB3"/>
<path d="M491.087 37.8701H471.594V42.7096H491.087V37.8701Z" fill="#00FFB3"/>
<path d="M521.155 37.8701H501.663V42.7096H521.155V37.8701Z" fill="#00FFB3"/>
<path d="M39.7363 144.885L55.1729 156.372" stroke="#018576" stroke-width="2" stroke-miterlimit="10"/>
<path d="M55.1729 144.885L39.7363 156.372" stroke="#018576" stroke-width="2" stroke-miterlimit="10"/>
<path d="M54.3516 669.798L69.7882 681.285" stroke="#018576" stroke-width="2" stroke-miterlimit="10"/>
<path d="M69.7882 669.798L54.3516 681.285" stroke="#018576" stroke-width="2" stroke-miterlimit="10"/>
<path d="M271.058 832.271L298.295 852.54" stroke="#018576" stroke-width="2" stroke-miterlimit="10"/>
<path d="M298.295 832.271L271.058 852.54" stroke="#018576" stroke-width="2" stroke-miterlimit="10"/>
<path d="M99.6475 21.6997H521.296" stroke="#018576" stroke-width="2" stroke-miterlimit="10"/>
<path d="M1847.34 666.064H1854V661.107H1847.34V666.064Z" fill="#00FFB3"/>
<path d="M1847.34 675.704H1854V670.748H1847.34V675.704Z" fill="#00FFB3"/>
<path d="M1847.34 685.344H1854V680.387H1847.34V685.344Z" fill="#00FFB3"/>
<path d="M1851.22 655.591V47.5489L1789.07 1.30078H1330.26" stroke="#018576" stroke-width="2" stroke-miterlimit="10"/>
<path d="M1790.91 661.042V640.631L1768.06 623.628V561.742L1806.9 532.836V163.176" stroke="#018576" stroke-width="2" stroke-miterlimit="10"/>
<path d="M1798.21 54.3531L1754.33 21.6997H1361.34" stroke="#018576" stroke-width="2" stroke-miterlimit="10"/>
<path d="M1797.01 72.332H1804.32V66.8941H1797.01V72.332Z" fill="#00FFB3"/>
<path d="M1797.01 82.9214H1804.32V77.4835H1797.01V82.9214Z" fill="#00FFB3"/>
<path d="M1797.01 93.498H1804.32V88.0602H1797.01V93.498Z" fill="#00FFB3"/>
<path d="M1772.62 852.839L1722.36 890.241H1107.26" stroke="#018576" stroke-width="2" stroke-miterlimit="10"/>
<path d="M1771.4 888.211L1848.18 831.074L1850.01 691.875" stroke="#018576" stroke-width="2" stroke-miterlimit="10"/>
<path d="M1838.42 863.259L1778.72 907.699H1438.72" stroke="#018576" stroke-width="2" stroke-miterlimit="10"/>
<path d="M1416.79 876.88H1436.29V872.04H1416.79V876.88Z" fill="#00FFB3"/>
<path d="M1386.72 876.88H1406.22V872.04H1386.72V876.88Z" fill="#00FFB3"/>
<path d="M1356.67 876.88H1376.16V872.04H1356.67V876.88Z" fill="#00FFB3"/>
<path d="M1392.97 42.6968H1412.46V37.8573H1392.97V42.6968Z" fill="#00FFB3"/>
<path d="M1362.91 42.6968H1382.41V37.8573H1362.91V42.6968Z" fill="#00FFB3"/>
<path d="M1332.84 42.6968H1352.34V37.8573H1332.84V42.6968Z" fill="#00FFB3"/>
<path d="M1814.26 144.885L1798.83 156.372" stroke="#018576" stroke-width="2" stroke-miterlimit="10"/>
<path d="M1798.83 144.885L1814.26 156.372" stroke="#018576" stroke-width="2" stroke-miterlimit="10"/>
<path d="M1799.65 669.798L1784.21 681.285" stroke="#018576" stroke-width="2" stroke-miterlimit="10"/>
<path d="M1784.21 669.798L1799.65 681.285" stroke="#018576" stroke-width="2" stroke-miterlimit="10"/>
<path d="M1754.35 21.6997H1332.69" stroke="#018576" stroke-width="2" stroke-miterlimit="10"/>
</g>
<defs>
<clipPath id="clip0_660_1590">
<rect width="1854" height="909" fill="white"/>
</clipPath>
</defs>
</svg>
