<svg xmlns="http://www.w3.org/2000/svg" width="200" height="200" viewBox="0 0 240 240" fill="none">
  <g clip-path="url(#clip0_1_672)">
    <path d="M120.011 240.022C186.291 240.022 240.022 186.291 240.022 120.011C240.022 53.7307 186.291 0 120.011 0C53.7307 0 0 53.7307 0 120.011C0 186.291 53.7307 240.022 120.011 240.022Z" fill="#FAB217"/>
    <path d="M119.355 216.466C173.99 216.466 218.281 172.175 218.281 117.539C218.281 62.9037 173.99 18.6128 119.355 18.6128C64.7191 18.6128 20.4282 62.9037 20.4282 117.539C20.4282 172.175 64.7191 216.466 119.355 216.466Z" fill="#F6CA10"/>
    <path d="M213.513 124.473C213.513 136.335 211.177 148.082 206.637 159.041C202.098 170 195.444 179.958 187.056 188.346C178.668 196.734 168.71 203.388 157.75 207.928C146.791 212.467 135.045 214.804 123.182 214.804C111.32 214.804 99.5737 212.467 88.6143 207.928C77.6548 203.388 67.6968 196.734 59.3089 188.346C50.9209 179.958 44.2672 170 39.7276 159.041C35.1881 148.082 32.8516 136.335 32.8516 124.473C32.8516 100.516 42.3685 77.5397 59.3089 60.5994C76.2492 43.6591 99.2252 34.1421 123.182 34.1421C135.045 34.1421 146.791 36.4786 157.75 41.0182C168.71 45.5577 178.668 52.2114 187.056 60.5994C195.444 68.9874 202.098 78.9454 206.637 89.9048C211.177 100.864 213.513 112.611 213.513 124.473Z" fill="#FAB217"/>
    <path d="M120.011 223.727C92.5124 223.698 66.1485 212.762 46.7042 193.317C27.2599 173.873 16.3234 147.509 16.2944 120.011C16.3292 92.5142 27.2675 66.1537 46.7106 46.7107C66.1537 27.2676 92.5142 16.3292 120.011 16.2944C147.507 16.3292 173.868 27.2676 193.311 46.7107C212.754 66.1537 223.692 92.5142 223.727 120.011C223.698 147.509 212.762 173.873 193.317 193.317C173.873 212.762 147.509 223.698 120.011 223.727ZM120.011 26.6398C95.2562 26.6688 71.5237 36.5153 54.0195 54.0195C36.5153 71.5237 26.6688 95.2562 26.6398 120.011C26.6688 144.765 36.5153 168.498 54.0195 186.002C71.5237 203.506 95.2562 213.353 120.011 213.382C144.765 213.353 168.498 203.506 186.002 186.002C203.506 168.498 213.353 144.765 213.382 120.011C213.37 95.2448 203.531 71.4955 186.025 53.9771C168.519 36.4588 144.777 26.6032 120.011 26.5742V26.6398Z" fill="#D78E1C"/>
    <path d="M153.215 80.257V161.729C153.216 164.261 152.717 166.769 151.748 169.109C150.778 171.448 149.357 173.574 147.566 175.364C145.774 177.154 143.647 178.573 141.307 179.54C138.966 180.507 136.458 181.003 133.925 181H106.252C101.144 180.996 96.2466 178.964 92.6363 175.35C89.0261 171.737 86.9987 166.837 87 161.729V123.205C88.9719 125.281 100.822 137.49 120.023 137.514C139.322 137.566 151.248 125.248 153.196 123.205C152.253 121.79 141.167 105.751 120.763 105.416C99.5345 105.057 87.7973 122.002 87.0047 123.205V80.2759C87.0041 77.7447 87.5021 75.2383 88.4703 72.8997C89.4385 70.561 90.8579 68.436 92.6474 66.6461C94.437 64.8561 96.5616 63.4361 98.9 62.4674C101.238 61.4986 103.745 61 106.276 61H133.925C136.456 60.9975 138.963 61.4937 141.303 62.4602C143.642 63.4266 145.768 64.8445 147.559 66.6327C149.351 68.421 150.772 70.5446 151.743 72.8822C152.713 75.2199 153.214 77.7259 153.215 80.257Z" fill="#F6CA10"/>
    <path d="M120.108 137.518C128.985 137.518 136.181 130.322 136.181 121.446C136.181 112.569 128.985 105.373 120.108 105.373C111.231 105.373 104.035 112.569 104.035 121.446C104.035 130.322 111.231 137.518 120.108 137.518Z" fill="#F6CA10"/>
    <path d="M153.215 78.257V159.729C153.216 162.261 152.717 164.769 151.748 167.109C150.778 169.448 149.357 171.574 147.566 173.364C145.774 175.154 143.647 176.573 141.307 177.54C138.966 178.507 136.458 179.003 133.925 179H106.252C101.144 178.996 96.2466 176.964 92.6363 173.35C89.0261 169.737 86.9987 164.837 87 159.729V121.205C88.9719 123.281 100.822 135.49 120.023 135.514C139.322 135.566 151.248 123.248 153.196 121.205C152.253 119.79 141.167 103.751 120.763 103.416C99.5345 103.057 87.7973 120.002 87.0047 121.205V78.2759C87.0041 75.7447 87.5021 73.2383 88.4703 70.8997C89.4385 68.561 90.8579 66.436 92.6474 64.6461C94.437 62.8561 96.5616 61.4361 98.9 60.4674C101.238 59.4986 103.745 59 106.276 59H133.925C136.456 58.9975 138.963 59.4937 141.303 60.4602C143.642 61.4266 145.768 62.8445 147.559 64.6327C149.351 66.421 150.772 68.5446 151.743 70.8822C152.713 73.2199 153.214 75.7259 153.215 78.257Z" fill="#D78E1C"/>
    <path d="M120.108 135.518C128.985 135.518 136.181 128.322 136.181 119.446C136.181 110.569 128.985 103.373 120.108 103.373C111.231 103.373 104.035 110.569 104.035 119.446C104.035 128.322 111.231 135.518 120.108 135.518Z" fill="#D78E1C"/>
    <path opacity="0.2" d="M120.011 -0.000148698C92.7489 -0.065125 66.2847 9.19618 45.0122 26.2461C40.5448 38.8454 38.2664 52.1163 38.2757 65.4842C38.2757 96.6286 50.6477 126.497 72.6702 148.52C94.6926 170.542 124.561 182.914 155.706 182.914C185.48 182.949 214.147 171.631 235.866 151.266C238.634 141.048 240.031 130.509 240.022 119.923C239.999 88.1096 227.344 57.6068 204.84 35.1193C182.337 12.6318 151.825 -0.000157152 120.011 -0.000148698Z" fill="#FFFAEF"/>
  </g>
  <defs>
    <clipPath id="clip0_1_672">
      <rect width="240" height="240" fill="white"/>
    </clipPath>
  </defs>
</svg>