<svg width="240" height="240" viewBox="0 0 240 240" fill="none" xmlns="http://www.w3.org/2000/svg">
<g clip-path="url(#clip0_1_672)">
<path d="M120.011 240.022C186.291 240.022 240.022 186.291 240.022 120.011C240.022 53.7307 186.291 0 120.011 0C53.7307 0 0 53.7307 0 120.011C0 186.291 53.7307 240.022 120.011 240.022Z" fill="#FAB217"/>
<path d="M119.355 216.466C173.99 216.466 218.281 172.175 218.281 117.539C218.281 62.9037 173.99 18.6128 119.355 18.6128C64.7191 18.6128 20.4282 62.9037 20.4282 117.539C20.4282 172.175 64.7191 216.466 119.355 216.466Z" fill="#F6CA10"/>
<path d="M213.513 124.473C213.513 136.335 211.177 148.082 206.637 159.041C202.098 170 195.444 179.958 187.056 188.346C178.668 196.734 168.71 203.388 157.75 207.928C146.791 212.467 135.045 214.804 123.182 214.804C111.32 214.804 99.5737 212.467 88.6143 207.928C77.6548 203.388 67.6968 196.734 59.3089 188.346C50.9209 179.958 44.2672 170 39.7276 159.041C35.1881 148.082 32.8516 136.335 32.8516 124.473C32.8516 100.516 42.3685 77.5397 59.3089 60.5994C76.2492 43.6591 99.2252 34.1421 123.182 34.1421C135.045 34.1421 146.791 36.4786 157.75 41.0182C168.71 45.5577 178.668 52.2114 187.056 60.5994C195.444 68.9874 202.098 78.9454 206.637 89.9048C211.177 100.864 213.513 112.611 213.513 124.473Z" fill="#FAB217"/>
<path d="M120.011 223.727C92.5124 223.698 66.1485 212.762 46.7042 193.317C27.2599 173.873 16.3234 147.509 16.2944 120.011C16.3292 92.5142 27.2675 66.1537 46.7106 46.7107C66.1537 27.2676 92.5142 16.3292 120.011 16.2944C147.507 16.3292 173.868 27.2676 193.311 46.7107C212.754 66.1537 223.692 92.5142 223.727 120.011C223.698 147.509 212.762 173.873 193.317 193.317C173.873 212.762 147.509 223.698 120.011 223.727ZM120.011 26.6398C95.2562 26.6688 71.5237 36.5153 54.0195 54.0195C36.5153 71.5237 26.6688 95.2562 26.6398 120.011C26.6688 144.765 36.5153 168.498 54.0195 186.002C71.5237 203.506 95.2562 213.353 120.011 213.382C144.765 213.353 168.498 203.506 186.002 186.002C203.506 168.498 213.353 144.765 213.382 120.011C213.37 95.2448 203.531 71.4955 186.025 53.9771C168.519 36.4588 144.777 26.6032 120.011 26.5742V26.6398Z" fill="#D78E1C"/>
<path opacity="0.2" d="M120.011 -0.000148698C92.7489 -0.065125 66.2847 9.19618 45.0122 26.2461C40.5448 38.8454 38.2664 52.1163 38.2757 65.4842C38.2757 96.6286 50.6477 126.497 72.6702 148.52C94.6926 170.542 124.561 182.914 155.706 182.914C185.48 182.949 214.147 171.631 235.866 151.266C238.634 141.048 240.031 130.509 240.022 119.923C239.999 88.1096 227.344 57.6068 204.84 35.1193C182.337 12.6318 151.825 -0.000157152 120.011 -0.000148698Z" fill="#FFFAEF"/>
<path fill-rule="evenodd" clip-rule="evenodd" d="M74.0122 152.36C80.3114 149.775 96.1337 145.674 109.029 149.953C121.924 154.232 130.15 162.434 132.651 166C132.744 162.078 135.986 153.216 148.214 149.151C142.841 145.14 131.261 134.121 127.926 122.14C131.354 120.357 141.655 117.433 155.439 120L166 106.895L143.767 98.0698L141.544 93.2558L124.869 87.6395V78.2791L113.753 74C100.228 82.7364 73.3452 110.639 74.0122 152.36ZM89.5627 106.895C92.0639 101.992 100.512 89.6722 114.297 79.6164L119.299 81.221V90.5815L137.641 97.2675L139.03 101.279L158.206 109.302L153.76 114.919C146.997 113.938 130.971 113.581 120.966 120C120.688 117.861 120.633 112.405 122.634 107.698L118.743 105.558C115.871 112.244 112.518 130.323 122.078 149.151L111.517 144.605C109.665 138.186 107.627 120.856 114.297 102.884L110.684 101.012L108.183 107.698C104.385 106.806 95.3432 105.398 89.5627 106.895Z" fill="#D78E1C" fill-opacity="0.8"/>
<path d="M136.073 98.195L121.407 92.8184L136.617 100.346L136.073 98.195Z" fill="#FFFAEF"/>
</g>
<defs>
<clipPath id="clip0_1_672">
<rect width="240" height="240" fill="white"/>
</clipPath>
</defs>
</svg>
