<svg width="240" height="240" viewBox="0 0 240 240" fill="none" xmlns="http://www.w3.org/2000/svg">
<g clip-path="url(#clip0_1095_1527)">
<path d="M120.011 240.022C186.291 240.022 240.022 186.291 240.022 120.011C240.022 53.7307 186.291 0 120.011 0C53.7307 0 0 53.7307 0 120.011C0 186.291 53.7307 240.022 120.011 240.022Z" fill="#CBD5E1"/>
<path d="M119.355 216.466C173.99 216.466 218.281 172.175 218.281 117.539C218.281 62.9039 173.99 18.613 119.355 18.613C64.7191 18.613 20.4282 62.9039 20.4282 117.539C20.4282 172.175 64.7191 216.466 119.355 216.466Z" fill="#94A3B8"/>
<path d="M213.513 124.473C213.513 136.335 211.177 148.081 206.637 159.041C202.098 170 195.444 179.958 187.056 188.346C178.668 196.734 168.71 203.388 157.75 207.927C146.791 212.467 135.045 214.803 123.182 214.803C111.32 214.803 99.5737 212.467 88.6143 207.927C77.6548 203.388 67.6968 196.734 59.3089 188.346C50.9209 179.958 44.2672 170 39.7276 159.041C35.1881 148.081 32.8516 136.335 32.8516 124.473C32.8516 100.515 42.3685 77.5395 59.3089 60.5991C76.2492 43.6588 99.2252 34.1418 123.182 34.1418C135.045 34.1418 146.791 36.4784 157.75 41.0179C168.71 45.5575 178.668 52.2112 187.056 60.5991C195.444 68.9871 202.098 78.9451 206.637 89.9046C211.177 100.864 213.513 112.61 213.513 124.473Z" fill="#CBD5E1"/>
<path d="M120.011 223.727C92.5124 223.698 66.1485 212.762 46.7042 193.317C27.2599 173.873 16.3234 147.509 16.2944 120.011C16.3292 92.5142 27.2675 66.1537 46.7106 46.7107C66.1537 27.2676 92.5142 16.3292 120.011 16.2944C147.507 16.3292 173.868 27.2676 193.311 46.7107C212.754 66.1537 223.692 92.5142 223.727 120.011C223.698 147.509 212.762 173.873 193.317 193.317C173.873 212.762 147.509 223.698 120.011 223.727ZM120.011 26.6398C95.2562 26.6688 71.5237 36.5153 54.0195 54.0195C36.5153 71.5237 26.6688 95.2562 26.6398 120.011C26.6688 144.765 36.5153 168.498 54.0195 186.002C71.5237 203.506 95.2562 213.353 120.011 213.382C144.765 213.353 168.498 203.506 186.002 186.002C203.506 168.498 213.353 144.765 213.382 120.011C213.37 95.2448 203.531 71.4955 186.025 53.9771C168.519 36.4588 144.777 26.6032 120.011 26.5742V26.6398Z" fill="#0D101A"/>
<path opacity="0.2" d="M120.011 9.54421e-05C92.7489 -0.0648808 66.2847 9.19642 45.0122 26.2463C40.5448 38.8456 38.2664 52.1166 38.2757 65.4845C38.2757 96.6289 50.6477 126.498 72.6702 148.52C94.6926 170.542 124.561 182.915 155.706 182.915C185.48 182.949 214.147 171.631 235.866 151.266C238.634 141.049 240.031 130.509 240.022 119.924C239.999 88.1098 227.344 57.6071 204.84 35.1196C182.337 12.6321 151.825 8.69887e-05 120.011 9.54421e-05Z" fill="#FFFAEF"/>
<path fill-rule="evenodd" clip-rule="evenodd" d="M63.0153 166.209C70.9223 162.837 90.7828 157.488 106.969 163.07C123.155 168.651 133.48 179.349 136.62 184C136.736 178.884 140.806 167.326 156.155 162.023C149.411 156.791 134.876 142.419 130.69 126.791C134.992 124.465 147.922 120.651 165.225 124L178.48 106.907L150.573 95.3954L147.783 89.1163L126.853 81.7907V69.5814L112.899 64C95.9223 75.3953 62.1781 111.79 63.0153 166.209ZM82.5347 106.907C85.6742 100.512 96.2789 84.4419 113.581 71.3256L119.86 73.4186V85.628L142.884 94.3489L144.628 99.5815L168.698 110.047L163.116 117.372C154.628 116.093 134.511 115.628 121.953 124C121.604 121.209 121.535 114.093 124.046 107.954L119.163 105.163C115.558 113.884 111.349 137.465 123.349 162.023L110.093 156.093C107.767 147.721 105.209 125.116 113.581 101.674L109.046 99.2326L105.907 107.954C101.139 106.791 89.7905 104.954 82.5347 106.907Z" fill="#0D101A"/>
<path d="M140.916 95.5584L122.507 88.5454L141.598 98.3636L140.916 95.5584Z" fill="#0D101A"/>
</g>
<defs>
<clipPath id="clip0_1095_1527">
<rect width="240" height="240" fill="white"/>
</clipPath>
</defs>
</svg>
