<svg width="200" height="200" viewBox="0 0 240 240" fill="none" xmlns="http://www.w3.org/2000/svg">
<g clip-path="url(#clip0_1_666)">
<path d="M120.011 240.022C186.291 240.022 240.022 186.291 240.022 120.011C240.022 53.7307 186.291 0 120.011 0C53.7307 0 0 53.7307 0 120.011C0 186.291 53.7307 240.022 120.011 240.022Z" fill="#FAB217"/>
<path d="M119.355 216.466C173.99 216.466 218.281 172.175 218.281 117.539C218.281 62.9037 173.99 18.6128 119.355 18.6128C64.7191 18.6128 20.4282 62.9037 20.4282 117.539C20.4282 172.175 64.7191 216.466 119.355 216.466Z" fill="#F6CA10"/>
<path d="M213.513 124.473C213.513 136.335 211.177 148.082 206.637 159.041C202.098 170 195.444 179.958 187.056 188.346C178.668 196.734 168.71 203.388 157.75 207.928C146.791 212.467 135.045 214.804 123.182 214.804C111.32 214.804 99.5737 212.467 88.6143 207.928C77.6548 203.388 67.6968 196.734 59.3089 188.346C50.9209 179.958 44.2672 170 39.7276 159.041C35.1881 148.082 32.8516 136.335 32.8516 124.473C32.8516 100.516 42.3685 77.5397 59.3089 60.5994C76.2492 43.6591 99.2252 34.1421 123.182 34.1421C135.045 34.1421 146.791 36.4786 157.75 41.0182C168.71 45.5577 178.668 52.2114 187.056 60.5994C195.444 68.9874 202.098 78.9454 206.637 89.9048C211.177 100.864 213.513 112.611 213.513 124.473Z" fill="#FAB217"/>
<path d="M120.011 223.727C92.5124 223.698 66.1485 212.762 46.7042 193.317C27.2599 173.873 16.3234 147.509 16.2944 120.011C16.3292 92.5142 27.2675 66.1537 46.7106 46.7107C66.1537 27.2676 92.5142 16.3292 120.011 16.2944C147.507 16.3292 173.868 27.2676 193.311 46.7107C212.754 66.1537 223.692 92.5142 223.727 120.011C223.698 147.509 212.762 173.873 193.317 193.317C173.873 212.762 147.509 223.698 120.011 223.727ZM120.011 26.6398C95.2562 26.6688 71.5237 36.5153 54.0195 54.0195C36.5153 71.5237 26.6688 95.2562 26.6398 120.011C26.6688 144.765 36.5153 168.498 54.0195 186.002C71.5237 203.506 95.2562 213.353 120.011 213.382C144.765 213.353 168.498 203.506 186.002 186.002C203.506 168.498 213.353 144.765 213.382 120.011C213.37 95.2448 203.531 71.4955 186.025 53.9771C168.519 36.4588 144.777 26.6032 120.011 26.5742V26.6398Z" fill="#D78E1C"/>
<path d="M86.98 79.796H108.748V84.476H100.732V95.228H94.996V84.476H86.98V79.796ZM109.691 79.796H115.427V85.052H125.699V79.796H131.459V95.228H125.699V89.18H115.427V95.228H109.691V79.796ZM132.402 79.796H152.034V84.476H138.138V85.844H151.65V89.18H138.138V90.548H152.034V95.228H132.402V79.796Z" fill="#F6CA10"/>
<path d="M73.48 107.796H95.248V112.476H87.232V123.228H81.496V112.476H73.48V107.796ZM96.1909 107.796H113.759C115.279 107.796 116.551 108.316 117.575 109.356C118.599 110.38 119.111 111.652 119.111 113.172C119.111 114.372 118.775 115.436 118.103 116.364C117.431 117.276 116.551 117.908 115.463 118.26L119.111 123.228H113.375L109.919 118.524H101.927V123.228H96.1909V107.796ZM101.927 112.476V113.844H112.703C112.895 113.844 113.055 113.78 113.183 113.652C113.311 113.524 113.375 113.364 113.375 113.172C113.375 112.98 113.311 112.82 113.183 112.692C113.055 112.548 112.895 112.476 112.703 112.476H101.927ZM120.074 107.796H125.81V115.524C125.81 116.372 126.098 117.092 126.674 117.684C127.266 118.26 127.994 118.548 128.858 118.548H135.65C136.498 118.548 137.21 118.26 137.786 117.684C138.378 117.092 138.674 116.372 138.674 115.524V107.796H144.41V115.524C144.41 117.7 143.666 119.532 142.178 121.02C140.706 122.492 138.882 123.228 136.706 123.228H127.802C125.61 123.228 123.77 122.492 122.282 121.02C120.81 119.532 120.074 117.7 120.074 115.524V107.796ZM145.363 107.796H164.995V112.476H151.099V113.844H164.611V117.18H151.099V118.548H164.995V123.228H145.363V107.796Z" fill="#F6CA10"/>
<path d="M50.98 135.796H54.94L66.988 144.34V135.796H72.748V151.228H68.788L56.716 142.684V151.228H50.98V135.796ZM86.1469 135.796H88.3069L100.763 151.228H94.3549L92.9869 149.524H81.4669L80.0749 151.228H73.6909L86.1469 135.796ZM87.2269 142.372L84.4429 145.828H90.0109L87.2269 142.372ZM95.6988 135.796H117.467V140.476H109.451V151.228H103.715V140.476H95.6988V135.796ZM118.41 135.796H124.146V143.524C124.146 144.372 124.434 145.092 125.01 145.684C125.602 146.26 126.33 146.548 127.194 146.548H133.986C134.834 146.548 135.546 146.26 136.122 145.684C136.714 145.092 137.01 144.372 137.01 143.524V135.796H142.746V143.524C142.746 145.7 142.002 147.532 140.514 149.02C139.042 150.492 137.218 151.228 135.042 151.228H126.138C123.946 151.228 122.106 150.492 120.618 149.02C119.146 147.532 118.41 145.7 118.41 143.524V135.796ZM143.699 135.796H161.267C162.787 135.796 164.059 136.316 165.083 137.356C166.107 138.38 166.619 139.652 166.619 141.172C166.619 142.372 166.283 143.436 165.611 144.364C164.939 145.276 164.059 145.908 162.971 146.26L166.619 151.228H160.883L157.427 146.524H149.435V151.228H143.699V135.796ZM149.435 140.476V141.844H160.211C160.403 141.844 160.563 141.78 160.691 141.652C160.819 141.524 160.883 141.364 160.883 141.172C160.883 140.98 160.819 140.82 160.691 140.692C160.563 140.548 160.403 140.476 160.211 140.476H149.435ZM167.582 135.796H187.214V140.476H173.318V141.844H186.83V145.18H173.318V146.548H187.214V151.228H167.582V135.796Z" fill="#F6CA10"/>
<path d="M85.98 78.796H107.748V83.476H99.732V94.228H93.996V83.476H85.98V78.796ZM108.691 78.796H114.427V84.052H124.699V78.796H130.459V94.228H124.699V88.18H114.427V94.228H108.691V78.796ZM131.402 78.796H151.034V83.476H137.138V84.844H150.65V88.18H137.138V89.548H151.034V94.228H131.402V78.796Z" fill="#D78E1C"/>
<path d="M72.48 106.796H94.248V111.476H86.232V122.228H80.496V111.476H72.48V106.796ZM95.1909 106.796H112.759C114.279 106.796 115.551 107.316 116.575 108.356C117.599 109.38 118.111 110.652 118.111 112.172C118.111 113.372 117.775 114.436 117.103 115.364C116.431 116.276 115.551 116.908 114.463 117.26L118.111 122.228H112.375L108.919 117.524H100.927V122.228H95.1909V106.796ZM100.927 111.476V112.844H111.703C111.895 112.844 112.055 112.78 112.183 112.652C112.311 112.524 112.375 112.364 112.375 112.172C112.375 111.98 112.311 111.82 112.183 111.692C112.055 111.548 111.895 111.476 111.703 111.476H100.927ZM119.074 106.796H124.81V114.524C124.81 115.372 125.098 116.092 125.674 116.684C126.266 117.26 126.994 117.548 127.858 117.548H134.65C135.498 117.548 136.21 117.26 136.786 116.684C137.378 116.092 137.674 115.372 137.674 114.524V106.796H143.41V114.524C143.41 116.7 142.666 118.532 141.178 120.02C139.706 121.492 137.882 122.228 135.706 122.228H126.802C124.61 122.228 122.77 121.492 121.282 120.02C119.81 118.532 119.074 116.7 119.074 114.524V106.796ZM144.363 106.796H163.995V111.476H150.099V112.844H163.611V116.18H150.099V117.548H163.995V122.228H144.363V106.796Z" fill="#D78E1C"/>
<path d="M49.98 134.796H53.94L65.988 143.34V134.796H71.748V150.228H67.788L55.716 141.684V150.228H49.98V134.796ZM85.1469 134.796H87.3069L99.7629 150.228H93.3549L91.9869 148.524H80.4669L79.0749 150.228H72.6909L85.1469 134.796ZM86.2269 141.372L83.4429 144.828H89.0109L86.2269 141.372ZM94.6988 134.796H116.467V139.476H108.451V150.228H102.715V139.476H94.6988V134.796ZM117.41 134.796H123.146V142.524C123.146 143.372 123.434 144.092 124.01 144.684C124.602 145.26 125.33 145.548 126.194 145.548H132.986C133.834 145.548 134.546 145.26 135.122 144.684C135.714 144.092 136.01 143.372 136.01 142.524V134.796H141.746V142.524C141.746 144.7 141.002 146.532 139.514 148.02C138.042 149.492 136.218 150.228 134.042 150.228H125.138C122.946 150.228 121.106 149.492 119.618 148.02C118.146 146.532 117.41 144.7 117.41 142.524V134.796ZM142.699 134.796H160.267C161.787 134.796 163.059 135.316 164.083 136.356C165.107 137.38 165.619 138.652 165.619 140.172C165.619 141.372 165.283 142.436 164.611 143.364C163.939 144.276 163.059 144.908 161.971 145.26L165.619 150.228H159.883L156.427 145.524H148.435V150.228H142.699V134.796ZM148.435 139.476V140.844H159.211C159.403 140.844 159.563 140.78 159.691 140.652C159.819 140.524 159.883 140.364 159.883 140.172C159.883 139.98 159.819 139.82 159.691 139.692C159.563 139.548 159.403 139.476 159.211 139.476H148.435ZM166.582 134.796H186.214V139.476H172.318V140.844H185.83V144.18H172.318V145.548H186.214V150.228H166.582V134.796Z" fill="#D78E1C"/>
<path opacity="0.2" d="M120.011 -0.000148698C92.7489 -0.065125 66.2847 9.19618 45.0122 26.2461C40.5448 38.8454 38.2664 52.1163 38.2757 65.4842C38.2757 96.6286 50.6477 126.497 72.6702 148.52C94.6926 170.542 124.561 182.914 155.706 182.914C185.48 182.949 214.147 171.631 235.866 151.266C238.634 141.048 240.031 130.509 240.022 119.923C239.999 88.1096 227.344 57.6068 204.84 35.1193C182.337 12.6318 151.825 -0.000157152 120.011 -0.000148698Z" fill="#FFFAEF"/>
</g>
<defs>
<clipPath id="clip0_1_666">
<rect width="240" height="240" fill="white"/>
</clipPath>
</defs>
</svg>
